<?xml version="1.0" standalone="no"?>
<!DOCTYPE svg PUBLIC "-//W3C//DTD SVG 20010904//EN"
 "http://www.w3.org/TR/2001/REC-SVG-20010904/DTD/svg10.dtd">
<svg version="1.0" xmlns="http://www.w3.org/2000/svg"
 width="726.000000pt" height="726.000000pt" viewBox="0 0 726.000000 726.000000"
 preserveAspectRatio="xMidYMid meet">
<metadata>
Created by potrace 1.11, written by Peter Selinger 2001-2013
</metadata>
<g transform="translate(0.000000,726.000000) scale(0.100000,-0.100000)"
fill="#000000" stroke="none">
<path d="M6171 6830 c-33 -22 -83 -57 -110 -79 l-50 -39 -98 30 c-136 41 -318
44 -474 9 -69 -16 -190 -61 -221 -82 -34 -25 -48 -24 -48 2 0 28 -17 56 -41
69 -33 18 -79 -5 -149 -75 -35 -35 -67 -62 -71 -60 -4 3 -27 8 -50 11 -212 29
-431 -34 -570 -163 -60 -57 -137 -174 -178 -270 l-13 -33 -1554 0 -1554 0 0
-1550 c0 -852 -4 -1550 -8 -1550 -5 0 -19 11 -31 24 -49 52 -80 38 -85 -41 -8
-113 -115 -345 -242 -524 -138 -193 -155 -253 -129 -466 12 -105 68 -275 122
-373 25 -46 37 -81 40 -120 2 -30 10 -91 18 -135 8 -43 11 -82 7 -85 -4 -3
-32 -14 -62 -24 -30 -10 -83 -32 -117 -47 -51 -24 -64 -35 -73 -64 -27 -81 -8
-159 45 -184 51 -25 89 -9 309 128 21 13 32 11 122 -23 149 -56 206 -65 392
-63 139 2 162 0 163 -13 1 -49 14 -113 33 -173 26 -76 30 -68 -66 -121 -75
-41 -86 -55 -83 -106 3 -56 14 -78 47 -89 40 -14 74 2 159 75 52 44 69 53 89
48 97 -25 155 -32 235 -29 130 6 192 20 295 66 115 53 182 112 265 234 41 61
83 135 94 165 l19 55 1711 0 1711 0 1 45 c0 25 0 883 1 1907 l0 1861 51 49
c121 115 214 240 289 388 68 135 89 217 95 366 4 110 2 136 -17 200 -32 105
-75 179 -158 270 -46 50 -51 60 -61 129 -7 41 -19 99 -27 128 -9 30 -14 55
-12 57 1 2 47 24 101 49 107 50 126 72 122 144 -7 117 -74 143 -184 72z m113
-79 l4 -33 -112 -53 c-61 -30 -136 -68 -166 -85 l-55 -32 65 67 c93 96 234
195 252 177 4 -4 10 -23 12 -41z m-429 -70 c43 -12 83 -25 87 -29 4 -4 -7 -23
-26 -41 l-33 -32 -69 13 c-97 17 -463 17 -532 -1 -29 -7 -55 -11 -58 -8 -16
15 166 89 256 104 154 25 261 23 375 -6z m-747 -3 c25 -25 8 -45 -98 -120 -61
-42 -110 -75 -110 -73 0 19 172 203 191 205 3 0 10 -5 17 -12z m-239 -122 c8
-5 5 -15 -10 -34 -19 -25 -26 -27 -102 -28 -167 -3 -360 -35 -407 -68 -9 -6
-7 -1 4 11 34 40 180 106 266 119 19 3 37 8 40 11 7 8 195 -2 209 -11z m295
-21 c-9 -14 -14 -28 -10 -32 3 -3 59 2 123 12 69 11 172 19 248 19 128 1 284
-9 293 -18 2 -3 -4 -15 -14 -28 -17 -21 -25 -22 -74 -17 -64 7 -379 3 -430 -5
-55 -9 -254 -68 -269 -80 -35 -26 28 62 82 116 64 64 76 71 51 33z m919 -77
c22 -87 43 -268 31 -268 -2 0 -13 33 -25 73 -12 39 -39 106 -60 148 l-37 75
26 17 c15 9 32 17 38 17 6 0 19 -28 27 -62z m-1119 -23 c-13 -20 -19 -23 -25
-13 -6 8 -1 19 12 31 29 23 35 15 13 -18z m-174 -14 c-6 -12 -18 -21 -28 -22
-39 -1 -120 -8 -162 -14 -25 -4 -61 -9 -80 -11 -82 -12 -178 -43 -247 -81 -23
-13 -44 -23 -48 -23 -11 0 35 76 67 110 31 33 33 33 36 12 2 -12 5 -22 7 -22
2 0 45 11 96 25 51 13 117 27 148 31 31 3 57 7 58 8 1 1 39 3 83 4 79 3 81 3
70 -17z m1184 -56 c20 -42 46 -116 58 -165 23 -92 36 -107 67 -77 39 37 -55
-296 -121 -430 -28 -57 -54 -103 -57 -103 -3 0 -6 19 -7 43 -3 179 -62 423
-138 575 l-34 68 36 32 c37 31 37 31 53 11 21 -28 74 -167 100 -263 13 -48 21
-110 22 -158 0 -43 3 -78 7 -78 20 0 61 60 61 91 3 89 -39 253 -96 374 -25 52
-45 98 -45 102 0 9 42 53 50 53 4 0 23 -34 44 -75z m-299 36 l50 -1 -30 -30
c-31 -30 -42 -33 -180 -45 -33 -3 -71 -7 -85 -9 -14 -2 -56 -9 -95 -15 -103
-16 -263 -71 -402 -139 l-62 -30 20 50 c10 27 35 74 54 104 32 50 37 54 51 40
8 -9 17 -16 20 -16 2 0 58 18 123 40 75 25 147 42 197 46 44 4 80 7 81 8 3 2
132 1 258 -3z m-772 -25 c3 -7 -2 -24 -10 -36 -15 -22 -17 -22 -29 -5 -12 16
-11 21 3 37 19 22 29 23 36 4z m-173 -39 c0 -2 -8 -13 -17 -23 -12 -13 -63
-31 -148 -52 -138 -34 -251 -82 -364 -156 l-70 -45 16 52 c24 81 41 109 63
102 11 -4 46 8 89 29 78 40 189 73 271 82 30 3 56 7 57 8 5 4 103 7 103 3z
m110 -72 c0 -20 -22 -75 -29 -75 -4 0 -16 16 -27 35 l-18 34 24 26 c23 24 25
25 37 9 7 -10 13 -23 13 -29z m751 -23 c-26 -50 -59 -68 -143 -81 -90 -14
-191 -37 -223 -50 -30 -13 -143 -60 -200 -85 -72 -30 -195 -105 -202 -122 -7
-18 14 -44 36 -44 10 0 39 14 67 32 27 17 107 58 179 90 139 64 208 86 328
103 l39 6 -23 -40 c-12 -23 -29 -41 -36 -41 -28 0 -212 -64 -275 -96 -99 -50
-267 -160 -315 -207 l-42 -41 4 47 c3 26 7 66 9 90 6 53 43 231 58 277 10 32
12 33 19 12 11 -29 28 -28 97 7 88 44 236 100 310 117 90 21 96 22 161 30 31
3 57 7 58 8 1 1 25 2 53 4 46 2 50 0 41 -16z m-949 -46 c-14 -29 -27 -37 -87
-55 -38 -12 -88 -29 -110 -38 -57 -23 -232 -130 -287 -176 l-47 -38 3 43 c2
24 4 55 5 71 1 24 4 27 25 21 17 -4 42 7 95 41 100 65 199 109 311 139 52 13
98 25 102 25 4 1 0 -14 -10 -33z m1612 -60 c44 -64 81 -134 73 -142 -2 -3 -11
6 -19 18 -8 13 -39 47 -69 76 -46 46 -54 59 -55 92 0 48 10 42 70 -44z m-516
-18 c40 -94 86 -267 97 -368 5 -52 17 -190 18 -217 0 -7 7 -13 16 -13 24 -1
-73 -84 -140 -120 -31 -16 -87 -41 -122 -55 l-65 -24 14 27 c29 55 11 263 -41
467 l-26 100 27 63 c14 34 30 62 35 62 12 0 65 -171 88 -286 22 -109 35 -214
40 -337 1 -17 2 -17 30 -1 16 10 32 25 34 35 3 10 -2 78 -10 151 -15 144 -53
306 -100 433 l-30 81 40 47 c23 26 44 47 48 47 4 0 25 -42 47 -92z m-975 42
l24 -41 -18 -64 c-9 -35 -14 -67 -11 -71 4 -4 2 -5 -3 -1 -6 3 -25 37 -44 75
l-34 70 28 36 c15 20 29 36 31 36 1 0 14 -18 27 -40z m-195 -101 c-6 -17 -18
-33 -27 -36 -110 -36 -229 -115 -350 -230 l-81 -78 0 85 c0 65 3 81 12 72 19
-19 38 -14 82 21 89 73 219 144 346 190 27 10 29 7 18 -24z m1747 -119 c8 0
15 6 15 13 1 8 4 7 9 -3 15 -26 22 -89 15 -126 l-7 -36 -25 44 c-28 49 -84
120 -124 160 -18 17 -28 38 -28 55 1 27 4 25 65 -39 36 -38 72 -68 80 -68z
m-1624 35 c33 -71 39 -93 35 -128 -3 -23 -8 -66 -11 -96 -6 -59 -15 -82 -15
-37 0 15 -22 83 -50 152 -41 105 -48 130 -38 148 13 25 29 46 35 46 2 0 22
-38 44 -85z m-633 -108 c-6 -247 31 -428 133 -661 41 -95 51 -111 71 -111 16
0 28 10 39 35 19 39 120 139 219 217 64 50 178 119 184 112 2 -2 6 -29 10 -59
3 -30 8 -66 10 -80 3 -14 12 -68 21 -120 14 -85 29 -144 80 -317 9 -29 20 -55
26 -59 21 -12 55 8 87 51 73 100 359 280 564 356 l77 28 30 -79 c52 -133 82
-251 82 -313 -1 -72 12 -79 74 -43 l45 27 0 -1761 0 -1760 -1611 0 -1611 0 8
67 c13 121 4 354 -16 433 -5 19 -12 53 -15 75 -4 22 -28 103 -53 180 -40 119
-50 140 -69 143 -16 2 -28 -7 -46 -35 -13 -21 -31 -44 -40 -51 -14 -12 -15
-11 -12 10 13 69 29 274 29 348 -1 36 -11 175 -20 268 -6 57 -7 63 -28 167 -8
39 -20 100 -26 137 -20 112 -57 124 -128 40 -48 -58 -204 -156 -377 -237 -66
-31 -127 -60 -136 -65 -22 -11 -350 -103 -353 -99 -1 2 -16 22 -31 44 -16 22
-50 62 -76 88 l-47 48 1 1548 0 1548 1454 2 1453 1 -2 -123z m2203 -42 c29
-50 52 -77 68 -81 22 -6 23 -10 17 -60 -3 -29 -11 -65 -17 -80 -10 -27 -12
-25 -65 76 -31 58 -73 128 -95 157 -43 57 -44 60 -29 99 l11 27 32 -31 c18
-18 53 -66 78 -107z m-1755 108 c-35 -95 -51 -119 -106 -151 -75 -45 -165
-125 -217 -195 -24 -33 -43 -58 -44 -56 -5 23 -9 53 -15 98 -6 52 -6 54 14 49
17 -5 26 2 41 26 25 40 183 171 259 213 66 37 77 40 68 16z m103 -102 c33 -97
61 -221 61 -274 0 -43 -3 -49 -32 -67 -18 -11 -36 -20 -39 -20 -3 0 -11 37
-18 82 -7 45 -26 118 -42 162 l-29 81 27 66 c32 77 36 75 72 -30z m726 47
c-14 -24 -38 -64 -53 -90 -16 -28 -36 -49 -50 -53 -98 -24 -269 -134 -372
-239 -36 -36 -68 -66 -71 -66 -3 0 -7 45 -8 100 l-1 100 27 -6 c23 -4 36 3 74
38 98 93 374 243 472 257 5 0 -4 -18 -18 -41z m136 -183 c26 -146 35 -298 20
-353 -10 -34 -19 -46 -44 -57 -79 -32 -74 -36 -73 72 0 115 -6 159 -33 271
l-20 83 51 87 51 86 14 -39 c7 -22 23 -89 34 -150z m711 20 c20 -33 49 -86 64
-118 22 -45 32 -56 46 -51 10 3 18 2 18 -2 0 -14 -90 -185 -125 -237 l-35 -52
0 33 c0 38 -60 225 -95 295 -20 39 -22 52 -13 72 6 14 15 25 19 25 11 0 82
-140 110 -216 21 -57 42 -75 61 -56 17 17 -5 77 -79 221 -34 68 -63 127 -63
131 0 5 5 21 10 35 l10 27 18 -23 c10 -13 35 -51 54 -84z m-1783 -41 c-12 -27
-27 -51 -33 -53 -26 -10 -136 -126 -157 -167 -13 -24 -26 -44 -29 -44 -3 0
-10 16 -16 35 -10 30 -9 35 8 40 10 4 18 10 18 15 0 7 76 105 105 135 21 23
118 95 121 92 3 -2 -5 -26 -17 -53z m109 -41 c11 -43 23 -105 26 -139 l6 -60
-38 -31 -38 -31 -2 60 c-1 33 -9 86 -17 118 -14 55 -14 60 6 109 12 28 25 51
29 51 4 0 17 -35 28 -77z m681 -5 c-36 -68 -80 -127 -101 -134 -26 -8 -62 -32
-133 -89 -56 -45 -91 -82 -121 -132 l-21 -34 -10 61 c-8 52 -7 60 6 60 9 0 61
44 116 98 71 69 125 111 185 144 47 27 86 48 88 48 1 0 -3 -10 -9 -22z m108
-129 c12 -100 6 -271 -9 -281 -7 -4 -32 -19 -54 -33 l-42 -25 3 108 c2 59 0
130 -4 158 -7 48 -4 56 33 122 l41 70 12 -28 c7 -15 16 -57 20 -91z m756 -54
c19 -55 37 -120 40 -145 3 -25 6 -46 6 -48 1 -1 10 -6 20 -10 17 -6 14 -13
-29 -62 -27 -30 -50 -53 -53 -50 -3 3 -8 37 -11 77 -6 69 -38 180 -69 239 -14
26 -13 31 12 76 33 59 38 54 84 -77z m-1647 -40 l-1 -80 -72 -72 -71 -71 -22
52 c-12 28 -31 72 -41 97 -18 46 -18 47 1 42 14 -4 24 4 39 28 27 47 74 108
84 109 4 0 0 -17 -9 -37 -18 -44 -60 -201 -60 -223 1 -9 11 -15 25 -15 22 0
26 7 38 55 18 75 41 147 61 193 22 51 30 28 28 -78z m1557 -135 c3 -19 9 -65
12 -103 4 -37 12 -70 17 -73 9 -6 -38 -64 -51 -64 -3 0 -6 37 -7 83 -1 58 -8
100 -23 142 -27 73 -27 78 -17 140 l8 50 28 -70 c15 -39 30 -86 33 -105z
m-953 52 c-49 -79 -112 -233 -113 -277 -2 -36 0 -40 24 -43 24 -3 29 2 44 45
40 110 146 323 161 323 10 0 0 -147 -13 -207 -14 -61 -14 -62 -99 -123 -47
-34 -94 -71 -104 -83 -11 -11 -21 -19 -23 -16 -2 2 -15 49 -30 104 -47 179
-47 179 -35 167 22 -22 47 -12 77 32 31 44 130 140 138 132 2 -2 -10 -27 -27
-54z m824 36 c-3 -13 -30 -48 -58 -78 -29 -30 -61 -70 -71 -87 -11 -18 -22
-33 -25 -33 -3 0 -15 26 -27 58 l-21 57 102 52 c55 29 102 52 104 52 2 1 0 -9
-4 -21z m-28 -170 c-7 -62 -18 -106 -40 -168 -22 -61 -21 -90 3 -90 15 0 54
31 43 34 -2 1 -1 8 2 16 16 50 28 92 32 117 3 15 7 35 9 43 2 8 4 29 5 45 1
28 1 28 12 10 7 -11 13 -54 14 -95 1 -41 3 -79 3 -84 1 -4 11 -6 24 -3 21 6
21 6 -3 -14 -60 -47 -153 -110 -157 -105 -4 4 -19 61 -29 113 -2 12 -8 32 -13
45 -6 17 -3 34 12 63 21 42 77 125 85 125 2 0 2 -24 -2 -52z m-3579 -2165 c1
-10 10 -67 21 -128 32 -175 34 -188 16 -170 -23 23 -43 18 -72 -16 -15 -18
-38 -43 -52 -58 -28 -29 -130 -104 -130 -96 0 3 20 35 44 70 68 100 158 281
154 313 -2 23 -8 27 -33 27 -28 0 -33 -6 -85 -112 -57 -116 -159 -275 -171
-267 -14 8 3 127 32 224 l19 65 76 44 c41 24 99 61 127 82 28 22 52 39 52 39
0 0 1 -8 2 -17z m-1170 -117 c31 -28 32 -30 14 -42 -14 -10 -19 -26 -19 -63
-1 -27 -6 -69 -13 -93 l-12 -43 -8 50 c-35 212 -42 240 -63 248 -7 3 -19 1
-27 -3 -11 -8 -11 -22 4 -94 21 -102 36 -226 27 -226 -10 0 -63 89 -83 137
-16 40 -16 44 3 87 10 24 24 69 31 99 l13 55 51 -41 c27 -23 65 -55 82 -71z
m104 -130 c-5 -6 -14 -42 -22 -79 -13 -67 -21 -79 -75 -110 -6 -4 0 24 13 61
14 37 27 97 30 135 l6 67 28 -31 c18 -20 25 -36 20 -43z m698 -6 c-17 -75 -20
-101 -20 -209 l0 -104 -51 -74 c-29 -40 -54 -73 -57 -73 -14 0 -21 272 -9 350
13 90 16 95 81 127 34 17 63 30 64 29 1 -1 -3 -22 -8 -46z m-1001 -82 c16 -29
48 -75 70 -102 51 -62 55 -77 27 -112 l-23 -29 -22 25 c-36 42 -120 172 -120
186 0 7 4 15 9 19 5 3 12 19 16 35 4 17 8 30 10 30 2 0 16 -24 33 -52z m382 5
c0 -7 -4 -13 -9 -13 -5 0 -16 -2 -23 -5 -11 -4 -13 3 -10 30 4 35 5 35 23 19
11 -9 19 -23 19 -31z m416 18 c-30 -47 -23 -380 9 -481 3 -9 -23 -54 -62 -109
-75 -102 -75 -102 -88 4 -3 22 -9 72 -14 110 -15 117 -12 329 6 388 18 64 19
65 79 82 60 16 77 18 70 6z m625 -68 c0 -21 2 -48 5 -60 3 -19 -1 -23 -20 -23
-14 0 -34 -12 -48 -27 -12 -16 -43 -44 -68 -63 -25 -19 -52 -41 -60 -49 -37
-36 -166 -107 -258 -142 -26 -10 -28 -14 32 73 33 50 49 63 120 97 100 50 207
129 249 187 18 24 35 43 40 44 4 0 7 -17 8 -37z m-839 9 c-37 -24 -41 -299 -7
-505 16 -94 19 -108 30 -162 6 -26 0 -37 -36 -78 -23 -27 -45 -45 -49 -40 -7
7 -46 153 -55 206 -2 12 -7 36 -9 52 -14 73 -21 191 -21 323 0 78 -1 142 -3
142 -13 0 -63 -34 -70 -48 -12 -23 -1 -388 12 -410 2 -4 7 -24 10 -44 3 -21 8
-53 11 -72 3 -18 19 -78 34 -132 16 -55 26 -103 24 -107 -3 -4 -28 -26 -56
-48 -37 -30 -52 -37 -58 -27 -14 26 -70 192 -74 222 -29 186 -35 251 -35 373
0 153 -3 173 -29 173 -11 0 -7 7 14 25 62 52 153 101 245 132 91 31 151 43
122 25z m-625 -150 c24 -31 52 -69 64 -84 l22 -27 -27 -41 c-23 -35 -30 -40
-43 -29 -31 26 -107 133 -119 167 -11 33 -10 39 14 70 23 31 28 33 37 17 5 -9
29 -42 52 -73z m1469 -129 c-4 -60 -8 -114 -8 -121 -1 -9 -6 -8 -18 3 -26 23
-43 18 -91 -25 -61 -54 -362 -203 -465 -229 -44 -12 -83 -21 -87 -21 -12 0 -8
16 11 37 9 11 37 50 62 86 25 37 51 67 57 67 29 0 144 46 236 93 92 46 121 66
251 174 28 23 53 42 55 42 2 1 0 -47 -3 -106z m-1552 -21 c24 -31 53 -67 64
-80 19 -22 19 -25 4 -62 l-17 -39 -28 27 c-15 14 -53 59 -84 99 l-57 72 -12
-27 c-14 -34 -11 -40 81 -146 67 -76 76 -91 67 -109 -5 -12 -14 -33 -19 -47
l-10 -25 -32 35 c-18 19 -51 59 -73 89 -22 29 -49 56 -59 58 -11 3 -19 13 -19
22 1 36 40 125 81 186 l43 64 13 -30 c7 -16 32 -55 57 -87z m277 -87 c1 -72 8
-170 16 -220 8 -49 16 -106 19 -125 3 -19 23 -87 45 -150 58 -166 58 -153 6
-189 l-45 -31 -25 63 c-55 137 -82 281 -81 429 1 95 -1 106 -15 98 -60 -32
-78 -95 -60 -213 5 -34 12 -84 15 -112 6 -46 53 -194 88 -277 l15 -36 -35 -27
c-19 -15 -37 -25 -38 -24 -18 23 -69 175 -82 245 -20 104 -37 138 -65 131 -18
-5 -19 -2 -14 26 24 110 131 367 194 465 29 46 55 82 56 80 2 -2 4 -62 6 -133z
m1255 -92 c-3 -21 -9 -56 -12 -77 -8 -55 -82 -313 -98 -344 -13 -25 -14 -25
-20 -4 -8 25 -43 29 -78 11 -64 -34 -328 -110 -428 -123 -25 -4 -110 -9 -190
-12 l-145 -7 40 45 c43 48 54 52 190 63 156 13 212 26 395 91 261 93 334 144
261 183 -13 8 -36 1 -92 -28 -88 -45 -385 -147 -449 -155 -25 -3 -76 -8 -115
-12 l-69 -6 36 43 c36 45 38 46 153 64 152 25 527 202 599 284 26 29 29 27 22
-16z m-1593 -188 c21 -26 26 -40 21 -59 -8 -35 -15 -33 -46 14 -24 38 -26 39
-32 18 -11 -43 -6 -63 24 -100 28 -34 30 -41 24 -87 -4 -28 -10 -48 -15 -45
-10 6 -85 237 -93 285 -3 19 -8 56 -11 83 l-6 48 53 -62 c29 -34 66 -77 81
-95z m1789 62 c42 -130 42 -126 19 -120 -14 3 -27 -6 -49 -39 -17 -23 -47 -59
-67 -78 l-37 -35 26 52 c45 90 86 224 75 245 -21 38 -41 18 -68 -67 -25 -77
-87 -215 -97 -215 -8 0 0 32 38 155 27 88 36 104 77 142 25 23 48 42 51 43 3
0 17 -37 32 -83z m51 -193 c6 -33 2 -40 -76 -120 -73 -77 -157 -143 -202 -160
-14 -6 -12 2 8 42 17 34 40 59 73 81 62 40 150 127 166 165 17 37 24 35 31 -8z
m-1766 -116 c-2 -7 -1 -23 4 -34 4 -12 11 -41 14 -63 3 -23 23 -84 44 -136 21
-52 35 -97 32 -101 -5 -5 -69 -34 -76 -34 -10 0 -28 153 -30 245 -2 104 1 135
12 135 3 0 3 -6 0 -12z m1795 -74 c4 -77 3 -81 -14 -71 -15 10 -25 4 -65 -34
-66 -64 -196 -152 -277 -189 -37 -16 -72 -30 -78 -30 -5 0 8 31 29 70 31 56
46 73 78 87 76 34 180 110 249 181 38 40 71 71 72 69 1 -1 4 -39 6 -83z m-430
-1 c-34 -73 -53 -104 -89 -143 -31 -35 -37 -38 -50 -25 -20 20 -40 19 -141 -9
-48 -14 -114 -28 -147 -32 -72 -8 -263 -8 -331 0 -27 4 -69 9 -94 12 -25 3
-57 8 -72 10 l-28 5 32 30 c18 16 44 29 58 29 276 5 370 11 471 30 62 12 255
71 339 103 36 14 66 26 67 26 1 1 -6 -16 -15 -36z m432 -178 c-3 -96 -10 -115
-29 -88 -12 16 -16 15 -66 -17 -144 -91 -350 -180 -417 -180 -21 0 14 58 40
65 44 13 173 67 208 88 81 47 226 158 245 186 11 17 21 31 21 31 1 0 0 -38 -2
-85z m-452 -36 c-10 -19 -25 -45 -32 -58 -11 -21 -13 -22 -22 -7 -7 12 0 27
29 60 21 24 39 43 41 41 2 -1 -6 -18 -16 -36z m-184 -61 c-48 -62 -73 -82
-173 -143 -99 -60 -189 -89 -340 -111 -72 -10 -237 -4 -306 12 -63 14 -194 59
-209 71 -8 7 75 73 92 73 9 0 29 -5 44 -10 45 -17 251 -49 364 -56 168 -10
256 -6 328 17 28 9 32 15 32 44 l0 34 -47 -7 c-81 -11 -374 -6 -453 7 -173 29
-181 31 -198 40 -21 12 35 54 63 47 11 -3 43 -8 70 -11 28 -4 61 -8 75 -11 34
-6 214 -17 275 -18 103 -1 233 15 315 39 47 13 89 24 93 24 5 1 -6 -18 -25
-41z m617 -74 c-7 -58 -20 -104 -30 -104 -4 0 -4 4 -1 9 16 25 -33 16 -97 -18
-131 -69 -211 -98 -357 -128 -8 -1 -39 -6 -69 -9 l-54 -7 26 34 c24 32 36 37
138 62 123 29 296 107 389 175 30 22 56 41 58 41 1 1 0 -24 -3 -55z m-526 14
c6 -17 2 -32 -17 -60 -13 -21 -26 -38 -29 -38 -2 0 -8 12 -13 26 -8 21 -5 31
16 60 15 19 28 34 31 34 2 0 7 -10 12 -22z m-1164 -40 c-108 -97 -301 -218
-325 -203 -5 3 -10 25 -10 48 l0 42 138 53 c75 30 157 64 182 77 65 33 68 30
15 -17z m1063 -75 c17 -38 16 -44 -20 -87 l-31 -38 -24 47 c-14 26 -22 49 -19
52 10 10 71 52 76 52 3 1 11 -11 18 -26z m592 -37 c0 -13 -31 -87 -50 -118
-18 -31 -24 -35 -39 -26 -13 8 -37 3 -107 -25 -49 -20 -105 -38 -124 -41 -19
-3 -48 -9 -65 -12 -52 -9 -265 -13 -265 -4 0 19 55 50 89 50 20 1 88 11 151
24 115 23 206 56 330 120 66 33 80 39 80 32z m-712 -78 l32 -57 -24 -26 c-13
-14 -28 -25 -33 -25 -5 0 -24 30 -41 67 l-31 68 32 16 c17 10 32 16 33 16 0
-1 15 -28 32 -59z m-111 -78 l43 -79 -22 -21 c-12 -11 -23 -19 -24 -17 -13 14
-64 111 -73 140 -14 40 -9 57 17 57 11 0 32 -28 59 -80z m-137 25 c0 -8 20
-53 45 -100 l44 -85 -25 -16 c-13 -9 -27 -15 -29 -12 -7 7 -43 157 -48 200 -3
21 -1 35 4 32 5 -3 9 -12 9 -19z m840 -96 c-16 -29 -90 -109 -101 -109 -5 0
-9 9 -9 20 0 23 -7 24 -67 10 -116 -27 -394 -43 -423 -25 -6 4 -5 13 1 23 9
15 30 17 143 18 181 2 305 23 416 72 25 11 46 18 48 17 2 -2 -2 -13 -8 -26z
m-140 -137 c0 -23 -149 -80 -268 -103 -70 -13 -195 -7 -260 13 l-42 13 22 25
23 26 175 -1 c185 0 289 8 318 24 21 13 32 14 32 3z m-627 -56 c-48 -54 -129
-123 -170 -144 -17 -9 -22 -9 -27 4 -11 29 -6 55 12 62 30 12 202 114 208 123
3 5 10 9 15 9 6 0 -11 -24 -38 -54z"/>
<path d="M3704 4851 c-77 -14 -141 -91 -206 -247 -71 -172 -108 -356 -103
-504 7 -201 74 -341 192 -400 70 -35 186 -35 264 1 137 64 237 241 268 479 14
103 5 275 -17 362 -47 175 -121 252 -237 247 -48 -2 -57 0 -75 24 -28 36 -48
44 -86 38z m176 -206 c80 -41 108 -253 66 -494 -41 -231 -127 -346 -245 -326
-67 11 -122 89 -137 195 -22 158 25 468 74 485 9 3 35 33 57 68 58 91 110 111
185 72z"/>
<path d="M2743 4830 c-122 -74 -274 -498 -257 -715 15 -191 44 -280 116 -356
59 -62 110 -83 208 -83 72 0 94 4 142 28 159 76 257 296 264 591 5 198 -30
339 -103 425 -44 51 -93 72 -161 69 -46 -2 -55 0 -69 22 -9 13 -22 27 -27 31
-21 14 -81 8 -113 -12z m236 -188 c60 -44 83 -142 77 -316 -6 -137 -9 -161
-37 -266 -43 -160 -115 -243 -205 -236 -117 9 -168 119 -160 351 4 119 12 165
52 303 3 12 13 22 20 22 8 0 34 31 58 68 62 97 130 123 195 74z"/>
<path d="M4453 4805 c-46 -33 -84 -159 -99 -330 -8 -106 -11 -571 -3 -646 9
-83 40 -146 75 -155 13 -4 42 0 62 8 l37 14 -1 70 c-1 38 -6 103 -11 144 -13
96 -5 446 12 537 2 10 4 27 5 38 1 11 21 -38 44 -110 79 -240 128 -332 191
-362 45 -21 60 -13 79 44 9 27 36 84 60 126 52 91 198 297 206 292 7 -4 6 -39
-5 -305 -12 -290 -11 -401 4 -438 22 -53 65 -68 132 -47 19 6 43 50 35 63 -2
4 -7 41 -11 82 -15 164 2 591 30 750 3 14 7 41 10 60 3 19 10 51 14 70 16 70
-53 127 -120 100 -59 -25 -230 -237 -380 -472 -13 -21 -27 -38 -30 -38 -17 0
-159 383 -159 428 0 22 -45 71 -77 83 -35 13 -76 11 -100 -6z"/>
<path d="M1712 4780 c-76 -11 -113 -55 -98 -116 5 -19 13 -24 37 -24 l32 0 -8
-52 c-7 -59 -12 -93 -19 -153 -5 -41 -16 -183 -21 -265 -1 -25 -6 -104 -10
-177 -10 -176 -4 -214 44 -262 48 -48 123 -66 248 -58 197 12 347 103 382 232
37 139 -14 249 -151 320 -42 22 -66 40 -58 43 35 10 108 49 146 77 65 46 89
88 91 158 2 92 -35 141 -152 200 -45 22 -138 54 -184 62 -92 17 -220 24 -279
15z m248 -145 c98 -12 190 -50 216 -90 30 -46 -6 -109 -85 -149 -59 -30 -171
-63 -238 -70 l-53 -6 5 87 c4 80 7 108 21 198 6 36 20 45 59 40 16 -2 50 -7
75 -10z m72 -494 c68 -26 103 -52 124 -94 20 -38 14 -105 -12 -140 -51 -67
-169 -105 -305 -98 -14 0 -36 11 -48 23 -23 21 -23 23 -16 152 4 72 7 141 6
153 0 13 7 24 17 27 39 11 179 -2 234 -23z"/>
<path d="M3995 3308 c-64 -35 -126 -126 -179 -264 -30 -78 -60 -177 -72 -239
-2 -11 -6 -31 -10 -45 -3 -14 -7 -72 -9 -130 -9 -226 64 -404 192 -466 56 -27
183 -28 251 -2 78 29 150 105 200 208 64 136 86 249 85 440 -1 189 -58 353
-146 415 -36 26 -50 30 -109 30 -38 0 -68 3 -68 6 0 3 -11 18 -25 33 -26 28
-73 35 -110 14z m228 -208 c46 -40 68 -117 70 -245 2 -220 -49 -431 -126 -513
-79 -85 -194 -65 -243 42 -67 147 -38 505 48 591 16 17 44 52 61 80 36 56 65
75 119 75 27 0 46 -8 71 -30z"/>
<path d="M4685 3274 c-81 -42 -72 -99 56 -356 33 -68 69 -137 80 -154 l19 -31
-93 -184 c-104 -206 -152 -335 -142 -381 9 -37 63 -64 103 -50 21 7 29 19 39
63 13 55 170 379 183 379 4 0 42 -57 85 -127 144 -238 220 -302 309 -261 42
19 42 44 -1 94 -56 67 -127 168 -180 259 -25 44 -63 107 -84 141 l-37 61 98
169 c54 93 120 196 146 229 26 32 47 68 47 78 -3 28 -30 55 -70 68 -51 17 -75
-1 -153 -113 -22 -31 -66 -105 -97 -164 l-57 -108 -36 77 c-20 42 -52 110 -70
149 -87 193 -87 192 -145 162z"/>
<path d="M2937 3250 c-73 -13 -108 -56 -93 -116 5 -19 13 -24 40 -24 l34 0 -9
-37 c-4 -21 -10 -60 -14 -88 -3 -27 -7 -66 -10 -85 -2 -19 -7 -79 -11 -135 -3
-55 -8 -116 -10 -135 -2 -19 -6 -105 -10 -190 -5 -149 -5 -157 18 -200 16 -31
37 -52 68 -70 41 -22 55 -24 170 -24 128 1 165 8 267 56 52 25 115 86 139 136
37 76 29 192 -19 263 -26 39 -118 105 -159 114 -16 4 -28 10 -28 13 0 4 34 22
75 41 89 40 160 109 171 165 22 118 -38 196 -198 260 -120 47 -320 74 -421 56z
m314 -156 c37 -9 84 -26 105 -38 151 -85 3 -223 -279 -261 l-48 -7 6 93 c3 51
7 104 9 118 2 14 7 47 10 72 l7 46 62 -4 c34 -1 92 -10 128 -19z m13 -484 c33
-13 75 -37 94 -55 30 -27 36 -39 40 -88 4 -55 4 -56 -44 -104 -58 -57 -125
-82 -224 -84 -84 -1 -116 11 -125 49 -5 24 1 240 9 287 2 19 32 25 111 21 51
-2 102 -12 139 -26z"/>
</g>
</svg>
